# xmcd
#
# Track frame offsets:
#	151
#	3011
#	10528
#	32943
#	51828
#	77400
#	101643
#	139141
#	163363
#	188422
#	213406
#
# Disc length: 3263 seconds
# Revision: 0
# Processed by: cddbd v1.5.2PL0 Copyright (c) Steve Scherf et al.
# Submitted via: dBpowerAMP V12.0
#
DISCID=810cbd0b
DTITLE=The Boneshakers - Live: Put Some Booty On It, Vol. 1
DYEAR=2002
DGENRE=Blues-Rock
TTITLE0=Introduction
TTITLE1=Bring Em On
TTITLE2=Welcome to My Life
TTITLE3=Ball and Chain
TTITLE4=Enough
TTITLE5=Teach Me How To Stay
TTITLE6=Hair
TTITLE7=Good Day for the Blues
TTITLE8=Don't Change Horses
TTITLE9=Long Way Down
TTITLE10=Cold Sweat
EXTD=
EXTT0=
EXTT1=
EXTT2=
EXTT3=
EXTT4=
EXTT5=
EXTT6=
EXTT7=
EXTT8=
EXTT9=
EXTT10=
PLAYORDER=
